<?xml version="1.0" standalone="no"?>
<!DOCTYPE svg PUBLIC "-//W3C//DTD SVG 20010904//EN"
 "http://www.w3.org/TR/2001/REC-SVG-20010904/DTD/svg10.dtd">
<svg version="1.0" xmlns="http://www.w3.org/2000/svg"
 width="500.000000pt" height="500.000000pt" viewBox="0 0 500.000000 500.000000"
 preserveAspectRatio="xMidYMid meet">
<metadata>
Created by potrace 1.14, written by Peter Selinger 2001-2017
</metadata>
<g transform="translate(0.000000,500.000000) scale(0.100000,-0.100000)"
fill="#000000" stroke="none">
<path d="M2260 4549 c-844 -97 -1546 -713 -1759 -1542 -34 -131 -61 -326 -61
-439 l0 -80 49 36 c131 96 329 155 524 156 107 0 310 -28 437 -61 75 -19 139
-29 187 -29 65 0 81 4 164 45 97 47 150 56 184 31 16 -11 33 -7 139 34 67 26
130 51 141 55 11 4 -27 -40 -85 -99 l-104 -106 -1 -62 c0 -86 -23 -128 -118
-218 -43 -41 -92 -96 -109 -123 -31 -49 -71 -77 -109 -77 -14 0 -67 -44 -153
-128 -223 -219 -357 -319 -551 -412 -108 -52 -174 -70 -261 -70 l-55 0 23 -40
c80 -141 285 -377 440 -507 71 -59 293 -213 308 -213 3 0 0 35 -7 77 -30 170
19 360 138 533 20 30 82 103 137 162 158 170 192 224 207 323 10 70 16 78 98
134 40 27 97 70 127 95 31 26 74 52 100 60 40 12 46 17 54 52 11 46 -4 201
-34 344 -11 52 -17 106 -13 120 11 44 80 195 134 292 169 300 717 1037 968
1300 55 58 101 108 101 110 0 11 -245 120 -340 151 -132 44 -306 83 -432 96
-112 13 -359 12 -468 0z"/>
<path d="M3591 4057 c-41 -78 -116 -216 -166 -307 -51 -91 -138 -253 -195
-360 -56 -107 -144 -269 -195 -360 -228 -408 -286 -521 -390 -758 l-112 -254
15 -41 c14 -40 13 -48 -24 -192 -31 -123 -39 -172 -42 -270 -3 -111 0 -137 43
-350 76 -379 63 -535 -58 -689 l-31 -39 149 6 c305 13 547 74 820 207 425 207
755 542 960 972 225 474 258 1028 90 1533 -39 117 -94 245 -106 245 -5 0 -31
-13 -57 -30 -27 -16 -54 -30 -59 -30 -6 0 -88 -38 -184 -84 -198 -96 -644
-297 -735 -331 -33 -13 -95 -31 -138 -39 -65 -14 -82 -14 -104 -3 -38 18 -34
55 18 161 l43 86 156 61 c243 95 520 200 709 268 95 34 195 72 223 84 l49 22
-61 90 c-121 177 -293 359 -456 483 -45 34 -83 62 -85 62 -2 0 -36 -64 -77
-143z"/>
<path d="M2560 2690 c0 -5 4 -10 10 -10 5 0 17 -14 26 -32 41 -80 -40 -190
-116 -158 -28 12 -70 74 -71 106 0 17 -2 16 -11 -3 -8 -17 -7 -33 7 -69 38
-101 141 -111 210 -20 34 45 42 94 21 134 -22 42 -76 80 -76 52z"/>
<path d="M1059 2430 c-149 -18 -325 -86 -406 -155 -23 -19 -57 -69 -86 -124
-40 -76 -49 -101 -49 -145 -1 -136 116 -242 244 -221 156 26 482 173 680 307
109 75 140 114 146 185 4 51 3 55 -31 87 -50 47 -139 68 -302 72 -71 1 -160
-1 -196 -6z"/>
<path d="M2075 1508 c-103 -68 -251 -302 -310 -488 -23 -72 -26 -96 -21 -155
13 -150 60 -231 164 -282 48 -23 69 -28 137 -28 70 1 87 4 134 30 104 57 137
148 128 350 -3 90 -13 152 -36 244 -18 68 -41 165 -51 215 -27 131 -34 146
-68 146 -16 0 -50 -14 -77 -32z"/>
</g>
</svg>
